<!-- Created with Friction - https://friction.graphics --><svg viewBox="0 0 1920 1080" xmlns="http://www.w3.org/2000/svg" xmlns:xlink="http://www.w3.org/1999/xlink" version="1.1"><rect width="1920" height="1080" fill="#2a0162"/><g opacity="1" transform="translate(136.535 132.258) translate(713.565 385.142) rotate(-495.3) scale(40.5442 40.5442) skewX(0) skewY(0) translate(-136.535 -132.258)"><path stroke-width="1" fill-rule="evenodd" d="M68.386 177.38C68.386 177.38 108.394 177.38 108.394 177.38C119.35 177.38 128.245 168.485 128.245 157.53C128.245 146.574 119.35 137.679 108.394 137.679C108.394 137.679 68.386 137.679 68.386 137.679C59.4067 137.679 52.117 130.389 52.117 121.41C52.117 112.431 59.4072 105.141 68.386 105.141C68.386 105.141 144.821 105.141 144.821 105.141C155.777 105.141 164.672 96.2465 164.672 85.291C164.672 74.3355 155.777 65.441 144.821 65.441C144.821 65.441 52.116 65.441 52.116 65.441C52.116 65.441 52.116 54.595 52.116 54.595C52.116 54.595 190.256 54.595 190.256 54.595C207.198 54.595 220.953 68.35 220.953 85.292C220.953 102.234 207.198 115.989 190.256 115.989C190.256 115.989 108.398 115.989 108.398 115.989C108.398 115.989 108.398 126.835 108.398 126.835C108.398 126.835 153.829 126.835 153.829 126.835C170.771 126.835 184.526 140.59 184.526 157.532C184.526 174.474 170.772 188.229 153.829 188.229C153.829 188.229 108.398 188.229 108.398 188.229C108.398 188.229 108.398 209.921 108.398 209.921C108.398 209.921 52.121 209.921 52.121 209.921C52.121 209.921 52.121 193.652 52.121 193.652C52.121 184.673 59.4112 177.383 68.39 177.383C68.39 177.383 68.386 177.38 68.386 177.38Z" stroke-linejoin="miter" id="F1" fill="#5433a7" stroke="none" stroke-linecap="butt"/></g><g transform="translate(128 128.001)"><g transform="translate(832 411.999)"><g transform="rotate(0)"><g><animateTransform dur="3.33333s" calcMode="spline" keySplines="0 0 1 1;0.333333 0.333333 0.666667 0.598711;0.270258 0.225238 0.729743 0.740834;0.333333 0.510001 0.666664 0.891506;0.333333 0.691738 0.666667 1;0.333334 0 0.666667 0.628409;0.333334 0.71061 0.666667 1;0.333333 5.86771e-15 0.666666 0.358389;0.333333 0.357969 0.666667 0.912378;0.333333 0.692543 0.666667 1;0.333333 0 0.666667 0.966081;0.333333 0.694852 0.666667 1;0.333333 0 0.666667 1;0.333333 0.333333 0.666667 0.666667;0 0 1 1" keyTimes="0;0;0.01;0.03;0.06;0.0673819;0.11;0.144237;0.16;0.21;0.21911;0.29;0.315117;0.496405;0.5;1" fill="freeze" attributeName="transform" type="scale" values="0 1;0 1;0.307069 1;1.19419 1;2.02822 1;2.02822 1;1.53412 1;1.31604 1;1.35088 1;1.56603 1;1.56603 1;1.4754 1;1.47382 1;1.49994 1;1.5 1;1.5 1"/><g><animateTransform dur="3.33333s" calcMode="spline" keySplines="0 0 1 1;0.333333 0.333333 0.666667 0.598711;0.299032 0.249219 0.700969 0.716854;0.333332 0.503574 0.666665 0.88582;0.333333 0.692711 0.666667 1;0.333334 0 0.666667 0.640209;0.333333 0.701618 0.666667 1;0.333333 0 0.666667 0.339574;0.333333 0.140691 0.666667 0.890433;0.333333 0.695787 0.666667 1;0.333333 0 0.666667 0.780784;0.333333 0.751773 0.666667 1;0.333333 1.01048e-13 0.666667 0.743592;0.333333 0.805632 0.666667 1;0.333333 0 0.666667 1" keyTimes="0;0;0.01;0.03;0.06;0.0675125;0.11;0.144575;0.15;0.21;0.220019;0.28;0.314493;0.37;0.696011;1" fill="freeze" attributeName="transform" type="scale" values="1 0;1 0;1 0.307069;1 1.19419;1 2.02822;1 2.02822;1 1.53412;1 1.31708;1 1.31834;1 1.56603;1 1.57254;1 1.48159;1 1.46654;1 1.47952;1 1.50416;1 1.5"/><g id="Badge2" opacity="1" transform="skewX(0) skewY(0) translate(-128 -128.001)"><g opacity="1" transform="translate(128 128.001) translate(0 0) rotate(0) scale(1 1) skewX(0) skewY(0) translate(-128 -128.001)"><path stroke-width="5" fill-rule="evenodd" d="M248 32.001C248 32.001 248 224.001 248 224.001C248 237.247 237.246 248.001 224 248.001C224 248.001 32 248.001 32 248.001C18.754 248.001 8 237.247 8 224.001C8 224.001 8 32.001 8 32.001C8 18.755 18.754 8.00101 32 8.00101C32 8.00101 224 8.00101 224 8.00101C237.246 8.00101 248 18.755 248 32.001C248 32.001 248 32.001 248 32.001Z" stroke-linejoin="miter" id="Background" fill="url(#0x000000002f612f20)" stroke="#2a0162" stroke-linecap="butt"/></g><g transform="translate(136.535 132.258) translate(0 0) rotate(0) scale(1 1) skewX(0) skewY(0) translate(-136.535 -132.258)"><path stroke-width="1" fill-rule="evenodd" d="M68.386 177.38C68.386 177.38 108.394 177.38 108.394 177.38C119.35 177.38 128.245 168.485 128.245 157.53C128.245 146.574 119.35 137.679 108.394 137.679C108.394 137.679 68.386 137.679 68.386 137.679C59.4067 137.679 52.117 130.389 52.117 121.41C52.117 112.431 59.4072 105.141 68.386 105.141C68.386 105.141 144.821 105.141 144.821 105.141C155.777 105.141 164.672 96.2465 164.672 85.291C164.672 74.3355 155.777 65.441 144.821 65.441C144.821 65.441 52.116 65.441 52.116 65.441C52.116 65.441 52.116 54.595 52.116 54.595C52.116 54.595 190.256 54.595 190.256 54.595C207.198 54.595 220.953 68.35 220.953 85.292C220.953 102.234 207.198 115.989 190.256 115.989C190.256 115.989 108.398 115.989 108.398 115.989C108.398 115.989 108.398 126.835 108.398 126.835C108.398 126.835 153.829 126.835 153.829 126.835C170.771 126.835 184.526 140.59 184.526 157.532C184.526 174.474 170.772 188.229 153.829 188.229C153.829 188.229 108.398 188.229 108.398 188.229C108.398 188.229 108.398 209.921 108.398 209.921C108.398 209.921 52.121 209.921 52.121 209.921C52.121 209.921 52.121 193.652 52.121 193.652C52.121 184.673 59.4112 177.383 68.39 177.383C68.39 177.383 68.386 177.38 68.386 177.38Z" stroke-linejoin="miter" id="F" fill="#2a0162" stroke="none" stroke-linecap="butt"/><animate dur="3.33333s" calcMode="spline" keySplines="0 0 1 1;0 0 1 1;0 0 1 1" keyTimes="0;0.6;0.75;1" fill="freeze" attributeName="opacity" values="1;1;0;0"/></g><g transform="translate(74 74) translate(54 54.001) rotate(0) scale(1.78637 1.78637) skewX(0) skewY(0) translate(-74 -74)"><path stroke-width="1" fill-rule="evenodd" d="M115.6 132C115.6 132 112.4 132 112.4 132C112.179 132 112 131.821 112 131.6C112 131.6 112 128.4 112 128.4C112 128.179 112.179 128 112.4 128C112.4 128 116 128 116 128C116 128 116 131.6 116 131.6C116 131.821 115.821 132 115.6 132ZM107.6 132C107.6 132 96.4 132 96.4 132C96.1791 132 96 131.821 96 131.6C96 131.6 96 128.4 96 128.4C96 128.179 96.1791 128 96.4 128C96.4 128 99.6 128 99.6 128C99.8209 128 100 127.821 100 127.6C100 127.6 100 124.4 100 124.4C100 124.179 99.8209 124 99.6 124C99.6 124 96.4 124 96.4 124C96.1791 124 96 123.821 96 123.6C96 123.6 96 120 96 120C96 120 99.6 120 99.6 120C99.8209 120 100 119.821 100 119.6C100 119.6 100 116.4 100 116.4C100 116.179 99.8209 116 99.6 116C99.6 116 96.4 116 96.4 116C96.1791 116 96 116.179 96 116.4C96 116.4 96 120 96 120C96 120 92.4 120 92.4 120C92.1791 120 92 119.821 92 119.6C92 119.6 92 104 92 104C92 104 95.6 104 95.6 104C95.8209 104 96 103.821 96 103.6C96 103.6 96 100.4 96 100.4C96 100.179 95.8209 100 95.6 100C95.6 100 92 100 92 100C92 100 92 96 92 96C92 96 99.6 96 99.6 96C99.8209 96 100 95.8209 100 95.6C100 95.6 100 92.4 100 92.4C100 92.1791 100.179 92 100.4 92C100.4 92 108 92 108 92C108 92 108 95.6 108 95.6C108 95.8209 108.179 96 108.4 96C108.4 96 111.6 96 111.6 96C111.821 96 112 95.8209 112 95.6C112 95.6 112 92 112 92C112 92 115.6 92 115.6 92C115.821 92 116 91.8209 116 91.6C116 91.6 116 88 116 88C116 88 120 88 120 88C120 88 120 91.6 120 91.6C120 91.8209 120.179 92 120.4 92C120.4 92 123.6 92 123.6 92C123.821 92 124 92.1791 124 92.4C124 92.4 124 95.6 124 95.6C124 95.8209 124.179 96 124.4 96C124.4 96 127.6 96 127.6 96C127.821 96 128 96.1791 128 96.4C128 96.4 128 99.6 128 99.6C128 99.8209 127.821 100 127.6 100C127.6 100 120.4 100 120.4 100C120.179 100 120 100.179 120 100.4C120 100.4 120 107.6 120 107.6C120 107.821 119.821 108 119.6 108C119.6 108 116.4 108 116.4 108C116.179 108 116 108.179 116 108.4C116 108.4 116 111.6 116 111.6C116 111.821 116.179 112 116.4 112C116.4 112 119.6 112 119.6 112C119.821 112 120 112.179 120 112.4C120 112.4 120 115.6 120 115.6C120 115.821 119.821 116 119.6 116C119.6 116 112.4 116 112.4 116C112.179 116 112 116.179 112 116.4C112 116.4 112 119.6 112 119.6C112 119.821 112.179 120 112.4 120C112.4 120 115.6 120 115.6 120C115.821 120 116 120.179 116 120.4C116 120.4 116 124 116 124C116 124 108.4 124 108.4 124C108.179 124 108 123.821 108 123.6C108 123.6 108 116.4 108 116.4C108 116.179 107.821 116 107.6 116C107.6 116 104.4 116 104.4 116C104.179 116 104 116.179 104 116.4C104 116.4 104 127.6 104 127.6C104 127.821 104.179 128 104.4 128C104.4 128 107.6 128 107.6 128C107.821 128 108 128.179 108 128.4C108 128.4 108 131.6 108 131.6C108 131.821 107.821 132 107.6 132ZM75.6 132C75.6 132 72.4 132 72.4 132C72.1791 132 72 131.821 72 131.6C72 131.6 72 128.4 72 128.4C72 128.179 72.1791 128 72.4 128C72.4 128 76 128 76 128C76 128 76 131.6 76 131.6C76 131.821 75.8209 132 75.6 132ZM59.6 132C59.6 132 56.4 132 56.4 132C56.1791 132 56 131.821 56 131.6C56 131.6 56 128 56 128C56 128 60 128 60 128C60 128 60 131.6 60 131.6C60 131.821 59.8209 132 59.6 132ZM51.6 132C51.6 132 48.4 132 48.4 132C48.1791 132 48 131.821 48 131.6C48 131.6 48 124.4 48 124.4C48 124.179 48.1791 124 48.4 124C48.4 124 55.6 124 55.6 124C55.8209 124 56 124.179 56 124.4C56 124.4 56 128 56 128C56 128 52.4 128 52.4 128C52.1791 128 52 128.179 52 128.4C52 128.4 52 131.6 52 131.6C52 131.821 51.8209 132 51.6 132ZM43.6 132C43.6 132 16.4 132 16.4 132C16.1791 132 16 131.821 16 131.6C16 131.6 16 104.4 16 104.4C16 104.179 16.1791 104 16.4 104C16.4 104 43.6 104 43.6 104C43.8209 104 44 104.179 44 104.4C44 104.4 44 131.6 44 131.6C44 131.821 43.8209 132 43.6 132ZM131.6 128C131.6 128 128.4 128 128.4 128C128.179 128 128 127.821 128 127.6C128 127.6 128 124.4 128 124.4C128 124.179 127.821 124 127.6 124C127.6 124 124.4 124 124.4 124C124.179 124 124 124.179 124 124.4C124 124.4 124 127.6 124 127.6C124 127.821 123.821 128 123.6 128C123.6 128 116 128 116 128C116 128 116 124 116 124C116 124 119.6 124 119.6 124C119.821 124 120 123.821 120 123.6C120 123.6 120 120.4 120 120.4C120 120.179 120.179 120 120.4 120C120.4 120 127.6 120 127.6 120C127.821 120 128 119.821 128 119.6C128 119.6 128 112 128 112C128 112 131.6 112 131.6 112C131.821 112 132 112.179 132 112.4C132 112.4 132 127.6 132 127.6C132 127.821 131.821 128 131.6 128ZM79.6 128C79.6 128 76 128 76 128C76 128 76 120.4 76 120.4C76 120.179 75.8209 120 75.6 120C75.6 120 72.4 120 72.4 120C72.1791 120 72 120.179 72 120.4C72 120.4 72 123.6 72 123.6C72 123.821 71.8209 124 71.6 124C71.6 124 64.4 124 64.4 124C64.1791 124 64 124.179 64 124.4C64 124.4 64 127.6 64 127.6C64 127.821 63.8209 128 63.6 128C63.6 128 60 128 60 128C60 128 60 120 60 120C60 120 67.6 120 67.6 120C67.8209 120 68 119.821 68 119.6C68 119.6 68 116.4 68 116.4C68 116.179 67.8209 116 67.6 116C67.6 116 60 116 60 116C60 116 60 112.4 60 112.4C60 112.179 59.8209 112 59.6 112C59.6 112 56.4 112 56.4 112C56.1791 112 56 112.179 56 112.4C56 112.4 56 115.6 56 115.6C56 115.821 56.1791 116 56.4 116C56.4 116 60 116 60 116C60 116 60 120 60 120C60 120 48.4 120 48.4 120C48.1791 120 48 119.821 48 119.6C48 119.6 48 112.4 48 112.4C48 112.179 48.1791 112 48.4 112C48.4 112 51.6 112 51.6 112C51.8209 112 52 111.821 52 111.6C52 111.6 52 108.4 52 108.4C52 108.179 52.1791 108 52.4 108C52.4 108 59.6 108 59.6 108C59.8209 108 60 107.821 60 107.6C60 107.6 60 104.4 60 104.4C60 104.179 60.1791 104 60.4 104C60.4 104 64 104 64 104C64 104 64 107.6 64 107.6C64 107.821 64.1791 108 64.4 108C64.4 108 67.6 108 67.6 108C67.8209 108 68 107.821 68 107.6C68 107.6 68 104.4 68 104.4C68 104.179 67.8209 104 67.6 104C67.6 104 64 104 64 104C64 104 64 100 64 100C64 100 67.6 100 67.6 100C67.8209 100 68 99.8209 68 99.6C68 99.6 68 92.4 68 92.4C68 92.1791 67.8209 92 67.6 92C67.6 92 64 92 64 92C64 92 64 88 64 88C64 88 75.6 88 75.6 88C75.8209 88 76 87.8209 76 87.6C76 87.6 76 80 76 80C76 80 80 80 80 80C80 80 80 91.6 80 91.6C80 91.8209 80.1791 92 80.4 92C80.4 92 84 92 84 92C84 92 84 95.6 84 95.6C84 95.8209 84.1791 96 84.4 96C84.4 96 88 96 88 96C88 96 88 99.6 88 99.6C88 99.8209 88.1791 100 88.4 100C88.4 100 92 100 92 100C92 100 92 104 92 104C92 104 84.4 104 84.4 104C84.1791 104 84 103.821 84 103.6C84 103.6 84 100.4 84 100.4C84 100.179 83.8209 100 83.6 100C83.6 100 80 100 80 100C80 100 80 96.4 80 96.4C80 96.1791 79.8209 96 79.6 96C79.6 96 76.4 96 76.4 96C76.1791 96 76 95.8209 76 95.6C76 95.6 76 92.4 76 92.4C76 92.1791 75.8209 92 75.6 92C75.6 92 72.4 92 72.4 92C72.1791 92 72 92.1791 72 92.4C72 92.4 72 115.6 72 115.6C72 115.821 72.1791 116 72.4 116C72.4 116 79.6 116 79.6 116C79.8209 116 80 115.821 80 115.6C80 115.6 80 112.4 80 112.4C80 112.179 80.1791 112 80.4 112C80.4 112 84 112 84 112C84 112 84 119.6 84 119.6C84 119.821 84.1791 120 84.4 120C84.4 120 87.6 120 87.6 120C87.8209 120 88 120.179 88 120.4C88 120.4 88 123.6 88 123.6C88 123.821 87.8209 124 87.6 124C87.6 124 80.4 124 80.4 124C80.1791 124 80 124.179 80 124.4C80 124.4 80 127.6 80 127.6C80 127.821 79.8209 128 79.6 128ZM40 127.6C40 127.6 40 108.4 40 108.4C40 108.179 39.8209 108 39.6 108C39.6 108 20.4 108 20.4 108C20.1791 108 20 108.179 20 108.4C20 108.4 20 127.6 20 127.6C20 127.821 20.1791 128 20.4 128C20.4 128 39.6 128 39.6 128C39.8209 128 40 127.821 40 127.6ZM35.6 124C35.6 124 24.4 124 24.4 124C24.1791 124 24 123.821 24 123.6C24 123.6 24 112.4 24 112.4C24 112.179 24.1791 112 24.4 112C24.4 112 35.6 112 35.6 112C35.8209 112 36 112.179 36 112.4C36 112.4 36 123.6 36 123.6C36 123.821 35.8209 124 35.6 124ZM127.6 112C127.6 112 124.4 112 124.4 112C124.179 112 124 111.821 124 111.6C124 111.6 124 108.4 124 108.4C124 108.179 124.179 108 124.4 108C124.4 108 127.6 108 127.6 108C127.821 108 128 108.179 128 108.4C128 108.4 128 112 128 112C128 112 127.6 112 127.6 112ZM112 111.6C112 111.6 112 100.4 112 100.4C112 100.179 111.821 100 111.6 100C111.6 100 100.4 100 100.4 100C100.179 100 100 100.179 100 100.4C100 100.4 100 111.6 100 111.6C100 111.821 100.179 112 100.4 112C100.4 112 111.6 112 111.6 112C111.821 112 112 111.821 112 111.6ZM87.6 112C87.6 112 84 112 84 112C84 112 84 108.4 84 108.4C84 108.179 84.1791 108 84.4 108C84.4 108 87.6 108 87.6 108C87.8209 108 88 108.179 88 108.4C88 108.4 88 111.6 88 111.6C88 111.821 87.8209 112 87.6 112ZM107.6 108C107.6 108 104.4 108 104.4 108C104.179 108 104 107.821 104 107.6C104 107.6 104 104.4 104 104.4C104 104.179 104.179 104 104.4 104C104.4 104 107.6 104 107.6 104C107.821 104 108 104.179 108 104.4C108 104.4 108 107.6 108 107.6C108 107.821 107.821 108 107.6 108ZM79.6 108C79.6 108 76.4 108 76.4 108C76.1791 108 76 107.821 76 107.6C76 107.6 76 100.4 76 100.4C76 100.179 76.1791 100 76.4 100C76.4 100 80 100 80 100C80 100 80 107.6 80 107.6C80 107.821 79.8209 108 79.6 108ZM51.6 104C51.6 104 48.4 104 48.4 104C48.1791 104 48 103.821 48 103.6C48 103.6 48 96.4 48 96.4C48 96.1791 48.1791 96 48.4 96C48.4 96 51.6 96 51.6 96C51.8209 96 52 95.8209 52 95.6C52 95.6 52 92.4 52 92.4C52 92.1791 51.8209 92 51.6 92C51.6 92 48.4 92 48.4 92C48.1791 92 48 91.8209 48 91.6C48 91.6 48 88.4 48 88.4C48 88.1791 47.8209 88 47.6 88C47.6 88 44 88 44 88C44 88 44 84 44 84C44 84 51.6 84 51.6 84C51.8209 84 52 84.1791 52 84.4C52 84.4 52 87.6 52 87.6C52 87.8209 52.1791 88 52.4 88C52.4 88 55.6 88 55.6 88C55.8209 88 56 87.8209 56 87.6C56 87.6 56 80 56 80C56 80 63.6 80 63.6 80C63.8209 80 64 79.8209 64 79.6C64 79.6 64 76.4 64 76.4C64 76.1791 64.1791 76 64.4 76C64.4 76 71.6 76 71.6 76C71.8209 76 72 75.8209 72 75.6C72 75.6 72 68.4 72 68.4C72 68.1791 71.8209 68 71.6 68C71.6 68 68 68 68 68C68 68 68 64.4 68 64.4C68 64.1791 68.1791 64 68.4 64C68.4 64 84 64 84 64C84 64 84 67.6 84 67.6C84 67.8209 84.1791 68 84.4 68C84.4 68 87.6 68 87.6 68C87.8209 68 88 67.8209 88 67.6C88 67.6 88 64 88 64C88 64 99.6 64 99.6 64C99.8209 64 100 64.1791 100 64.4C100 64.4 100 67.6 100 67.6C100 67.8209 99.8209 68 99.6 68C99.6 68 92.4 68 92.4 68C92.1791 68 92 68.1791 92 68.4C92 68.4 92 72 92 72C92 72 88.4 72 88.4 72C88.1791 72 88 72.1791 88 72.4C88 72.4 88 75.6 88 75.6C88 75.8209 87.8209 76 87.6 76C87.6 76 84 76 84 76C84 76 84 72.4 84 72.4C84 72.1791 83.8209 72 83.6 72C83.6 72 80.4 72 80.4 72C80.1791 72 80 72.1791 80 72.4C80 72.4 80 76 80 76C80 76 76.4 76 76.4 76C76.1791 76 76 76.1791 76 76.4C76 76.4 76 80 76 80C76 80 68.4 80 68.4 80C68.1791 80 68 80.1791 68 80.4C68 80.4 68 83.6 68 83.6C68 83.8209 67.8209 84 67.6 84C67.6 84 64.4 84 64.4 84C64.1791 84 64 84.1791 64 84.4C64 84.4 64 88 64 88C64 88 60.4 88 60.4 88C60.1791 88 60 88.1791 60 88.4C60 88.4 60 92 60 92C60 92 56.4 92 56.4 92C56.1791 92 56 92.1791 56 92.4C56 92.4 56 99.6 56 99.6C56 99.8209 55.8209 100 55.6 100C55.6 100 52.4 100 52.4 100C52.1791 100 52 100.179 52 100.4C52 100.4 52 103.6 52 103.6C52 103.821 51.8209 104 51.6 104ZM63.6 100C63.6 100 60.4 100 60.4 100C60.1791 100 60 99.8209 60 99.6C60 99.6 60 92 60 92C60 92 64 92 64 92C64 92 64 100 64 100C64 100 63.6 100 63.6 100ZM43.6 100C43.6 100 40.4 100 40.4 100C40.1791 100 40 99.8209 40 99.6C40 99.6 40 96.4 40 96.4C40 96.1791 40.1791 96 40.4 96C40.4 96 43.6 96 43.6 96C43.8209 96 44 96.1791 44 96.4C44 96.4 44 99.6 44 99.6C44 99.8209 43.8209 100 43.6 100ZM35.6 100C35.6 100 32.4 100 32.4 100C32.1791 100 32 99.8209 32 99.6C32 99.6 32 92.4 32 92.4C32 92.1791 32.1791 92 32.4 92C32.4 92 35.6 92 35.6 92C35.8209 92 36 92.1791 36 92.4C36 92.4 36 99.6 36 99.6C36 99.8209 35.8209 100 35.6 100ZM23.6 100C23.6 100 16.4 100 16.4 100C16.1791 100 16 99.8209 16 99.6C16 99.6 16 84.4 16 84.4C16 84.1791 16.1791 84 16.4 84C16.4 84 19.6 84 19.6 84C19.8209 84 20 84.1791 20 84.4C20 84.4 20 87.6 20 87.6C20 87.8209 20.1791 88 20.4 88C20.4 88 27.6 88 27.6 88C27.8209 88 28 88.1791 28 88.4C28 88.4 28 91.6 28 91.6C28 91.8209 27.8209 92 27.6 92C27.6 92 24.4 92 24.4 92C24.1791 92 24 92.1791 24 92.4C24 92.4 24 99.6 24 99.6C24 99.8209 23.8209 100 23.6 100ZM91.6 96C91.6 96 88 96 88 96C88 96 88 92 88 92C88 92 92 92 92 92C92 92 92 96 92 96C92 96 91.6 96 91.6 96ZM131.6 92C131.6 92 128.4 92 128.4 92C128.179 92 128 91.8209 128 91.6C128 91.6 128 88 128 88C128 88 131.6 88 131.6 88C131.821 88 132 88.1791 132 88.4C132 88.4 132 91.6 132 91.6C132 91.8209 131.821 92 131.6 92ZM111.6 92C111.6 92 108 92 108 92C108 92 108 88.4 108 88.4C108 88.1791 108.179 88 108.4 88C108.4 88 112 88 112 88C112 88 112 92 112 92C112 92 111.6 92 111.6 92ZM95.6 92C95.6 92 92 92 92 92C92 92 92 88.4 92 88.4C92 88.1791 91.8209 88 91.6 88C91.6 88 88.4 88 88.4 88C88.1791 88 88 88.1791 88 88.4C88 88.4 88 92 88 92C88 92 84 92 84 92C84 92 84 84.4 84 84.4C84 84.1791 84.1791 84 84.4 84C84.4 84 99.6 84 99.6 84C99.8209 84 100 84.1791 100 84.4C100 84.4 100 87.6 100 87.6C100 87.8209 99.8209 88 99.6 88C99.6 88 96.4 88 96.4 88C96.1791 88 96 88.1791 96 88.4C96 88.4 96 91.6 96 91.6C96 91.8209 95.8209 92 95.6 92ZM43.6 92C43.6 92 40.4 92 40.4 92C40.1791 92 40 91.8209 40 91.6C40 91.6 40 88.4 40 88.4C40 88.1791 40.1791 88 40.4 88C40.4 88 44 88 44 88C44 88 44 91.6 44 91.6C44 91.8209 43.8209 92 43.6 92ZM127.6 88C127.6 88 120 88 120 88C120 88 120 84 120 84C120 84 127.6 84 127.6 84C127.821 84 128 84.1791 128 84.4C128 84.4 128 88 128 88C128 88 127.6 88 127.6 88ZM115.6 88C115.6 88 112 88 112 88C112 88 112 84 112 84C112 84 116 84 116 84C116 84 116 88 116 88C116 88 115.6 88 115.6 88ZM35.6 88C35.6 88 32.4 88 32.4 88C32.1791 88 32 87.8209 32 87.6C32 87.6 32 80.4 32 80.4C32 80.1791 31.8209 80 31.6 80C31.6 80 28.4 80 28.4 80C28.1791 80 28 79.8209 28 79.6C28 79.6 28 76.4 28 76.4C28 76.1791 27.8209 76 27.6 76C27.6 76 24 76 24 76C24 76 24 68.4 24 68.4C24 68.1791 23.8209 68 23.6 68C23.6 68 16.4 68 16.4 68C16.1791 68 16 67.8209 16 67.6C16 67.6 16 60.4 16 60.4C16 60.1791 16.1791 60 16.4 60C16.4 60 20 60 20 60C20 60 20 63.6 20 63.6C20 63.8209 20.1791 64 20.4 64C20.4 64 27.6 64 27.6 64C27.8209 64 28 63.8209 28 63.6C28 63.6 28 56.4 28 56.4C28 56.1791 28.1791 56 28.4 56C28.4 56 31.6 56 31.6 56C31.8209 56 32 56.1791 32 56.4C32 56.4 32 59.6 32 59.6C32 59.8209 32.1791 60 32.4 60C32.4 60 35.6 60 35.6 60C35.8209 60 36 60.1791 36 60.4C36 60.4 36 63.6 36 63.6C36 63.8209 35.8209 64 35.6 64C35.6 64 32.4 64 32.4 64C32.1791 64 32 64.1791 32 64.4C32 64.4 32 67.6 32 67.6C32 67.8209 31.8209 68 31.6 68C31.6 68 28.4 68 28.4 68C28.1791 68 28 68.1791 28 68.4C28 68.4 28 71.6 28 71.6C28 71.8209 28.1791 72 28.4 72C28.4 72 31.6 72 31.6 72C31.8209 72 32 72.1791 32 72.4C32 72.4 32 75.6 32 75.6C32 75.8209 32.1791 76 32.4 76C32.4 76 35.6 76 35.6 76C35.8209 76 36 76.1791 36 76.4C36 76.4 36 87.6 36 87.6C36 87.8209 35.8209 88 35.6 88ZM119.6 84C119.6 84 116 84 116 84C116 84 116 80.4 116 80.4C116 80.1791 116.179 80 116.4 80C116.4 80 120 80 120 80C120 80 120 84 120 84C120 84 119.6 84 119.6 84ZM111.6 84C111.6 84 108.4 84 108.4 84C108.179 84 108 83.8209 108 83.6C108 83.6 108 80 108 80C108 80 111.6 80 111.6 80C111.821 80 112 80.1791 112 80.4C112 80.4 112 84 112 84C112 84 111.6 84 111.6 84ZM43.6 84C43.6 84 40.4 84 40.4 84C40.1791 84 40 83.8209 40 83.6C40 83.6 40 80.4 40 80.4C40 80.1791 40.1791 80 40.4 80C40.4 80 43.6 80 43.6 80C43.8209 80 44 80.1791 44 80.4C44 80.4 44 84 44 84C44 84 43.6 84 43.6 84ZM131.6 80C131.6 80 128.4 80 128.4 80C128.179 80 128 79.8209 128 79.6C128 79.6 128 72.4 128 72.4C128 72.1791 127.821 72 127.6 72C127.6 72 124.4 72 124.4 72C124.179 72 124 72.1791 124 72.4C124 72.4 124 79.6 124 79.6C124 79.8209 123.821 80 123.6 80C123.6 80 120 80 120 80C120 80 120 72.4 120 72.4C120 72.1791 119.821 72 119.6 72C119.6 72 116.4 72 116.4 72C116.179 72 116 72.1791 116 72.4C116 72.4 116 75.6 116 75.6C116 75.8209 115.821 76 115.6 76C115.6 76 108 76 108 76C108 76 108 72.4 108 72.4C108 72.1791 107.821 72 107.6 72C107.6 72 104 72 104 72C104 72 104 60.4 104 60.4C104 60.1791 104.179 60 104.4 60C104.4 60 120 60 120 60C120 60 120 63.6 120 63.6C120 63.8209 119.821 64 119.6 64C119.6 64 112.4 64 112.4 64C112.179 64 112 64.1791 112 64.4C112 64.4 112 67.6 112 67.6C112 67.8209 112.179 68 112.4 68C112.4 68 127.6 68 127.6 68C127.821 68 128 67.8209 128 67.6C128 67.6 128 60.4 128 60.4C128 60.1791 128.179 60 128.4 60C128.4 60 131.6 60 131.6 60C131.821 60 132 60.1791 132 60.4C132 60.4 132 79.6 132 79.6C132 79.8209 131.821 80 131.6 80ZM107.6 80C107.6 80 92.4 80 92.4 80C92.1791 80 92 79.8209 92 79.6C92 79.6 92 72 92 72C92 72 95.6 72 95.6 72C95.8209 72 96 72.1791 96 72.4C96 72.4 96 75.6 96 75.6C96 75.8209 96.1791 76 96.4 76C96.4 76 99.6 76 99.6 76C99.8209 76 100 75.8209 100 75.6C100 75.6 100 72.4 100 72.4C100 72.1791 100.179 72 100.4 72C100.4 72 104 72 104 72C104 72 104 75.6 104 75.6C104 75.8209 104.179 76 104.4 76C104.4 76 108 76 108 76C108 76 108 80 108 80C108 80 107.6 80 107.6 80ZM83.6 80C83.6 80 80 80 80 80C80 80 80 76 80 76C80 76 84 76 84 76C84 76 84 79.6 84 79.6C84 79.8209 83.8209 80 83.6 80ZM55.6 80C55.6 80 52.4 80 52.4 80C52.1791 80 52 79.8209 52 79.6C52 79.6 52 76.4 52 76.4C52 76.1791 52.1791 76 52.4 76C52.4 76 55.6 76 55.6 76C55.8209 76 56 76.1791 56 76.4C56 76.4 56 80 56 80C56 80 55.6 80 55.6 80ZM23.6 80C23.6 80 20.4 80 20.4 80C20.1791 80 20 79.8209 20 79.6C20 79.6 20 76.4 20 76.4C20 76.1791 20.1791 76 20.4 76C20.4 76 24 76 24 76C24 76 24 79.6 24 79.6C24 79.8209 23.8209 80 23.6 80ZM43.6 76C43.6 76 40.4 76 40.4 76C40.1791 76 40 75.8209 40 75.6C40 75.6 40 72.4 40 72.4C40 72.1791 40.1791 72 40.4 72C40.4 72 43.6 72 43.6 72C43.8209 72 44 72.1791 44 72.4C44 72.4 44 75.6 44 75.6C44 75.8209 43.8209 76 43.6 76ZM67.6 72C67.6 72 64.4 72 64.4 72C64.1791 72 64 71.8209 64 71.6C64 71.6 64 68.4 64 68.4C64 68.1791 64.1791 68 64.4 68C64.4 68 68 68 68 68C68 68 68 71.6 68 71.6C68 71.8209 67.8209 72 67.6 72ZM59.6 72C59.6 72 48.4 72 48.4 72C48.1791 72 48 71.8209 48 71.6C48 71.6 48 68.4 48 68.4C48 68.1791 47.8209 68 47.6 68C47.6 68 40.4 68 40.4 68C40.1791 68 40 67.8209 40 67.6C40 67.6 40 64.4 40 64.4C40 64.1791 40.1791 64 40.4 64C40.4 64 47.6 64 47.6 64C47.8209 64 48 63.8209 48 63.6C48 63.6 48 60 48 60C48 60 52 60 52 60C52 60 52 63.6 52 63.6C52 63.8209 52.1791 64 52.4 64C52.4 64 59.6 64 59.6 64C59.8209 64 60 64.1791 60 64.4C60 64.4 60 71.6 60 71.6C60 71.8209 59.8209 72 59.6 72ZM87.6 64C87.6 64 84 64 84 64C84 64 84 60.4 84 60.4C84 60.1791 84.1791 60 84.4 60C84.4 60 88 60 88 60C88 60 88 64 88 64C88 64 87.6 64 87.6 64ZM123.6 60C123.6 60 120 60 120 60C120 60 120 52.4 120 52.4C120 52.1791 120.179 52 120.4 52C120.4 52 128 52 128 52C128 52 128 55.6 128 55.6C128 55.8209 127.821 56 127.6 56C127.6 56 124.4 56 124.4 56C124.179 56 124 56.1791 124 56.4C124 56.4 124 59.6 124 59.6C124 59.8209 123.821 60 123.6 60ZM91.6 60C91.6 60 88 60 88 60C88 60 88 56.4 88 56.4C88 56.1791 88.1791 56 88.4 56C88.4 56 92 56 92 56C92 56 92 59.6 92 59.6C92 59.8209 91.8209 60 91.6 60ZM79.6 60C79.6 60 76.4 60 76.4 60C76.1791 60 76 59.8209 76 59.6C76 59.6 76 56.4 76 56.4C76 56.1791 75.8209 56 75.6 56C75.6 56 68 56 68 56C68 56 68 52 68 52C68 52 71.6 52 71.6 52C71.8209 52 72 51.8209 72 51.6C72 51.6 72 48 72 48C72 48 76 48 76 48C76 48 76 51.6 76 51.6C76 51.8209 76.1791 52 76.4 52C76.4 52 79.6 52 79.6 52C79.8209 52 80 51.8209 80 51.6C80 51.6 80 48.4 80 48.4C80 48.1791 79.8209 48 79.6 48C79.6 48 76 48 76 48C76 48 76 44 76 44C76 44 79.6 44 79.6 44C79.8209 44 80 43.8209 80 43.6C80 43.6 80 32.4 80 32.4C80 32.1791 79.8209 32 79.6 32C79.6 32 76 32 76 32C76 32 76 24.4 76 24.4C76 24.1791 76.1791 24 76.4 24C76.4 24 83.6 24 83.6 24C83.8209 24 84 24.1791 84 24.4C84 24.4 84 27.6 84 27.6C84 27.8209 84.1791 28 84.4 28C84.4 28 87.6 28 87.6 28C87.8209 28 88 28.1791 88 28.4C88 28.4 88 31.6 88 31.6C88 31.8209 88.1791 32 88.4 32C88.4 32 91.6 32 91.6 32C91.8209 32 92 31.8209 92 31.6C92 31.6 92 24.4 92 24.4C92 24.1791 91.8209 24 91.6 24C91.6 24 88.4 24 88.4 24C88.1791 24 88 23.8209 88 23.6C88 23.6 88 16.4 88 16.4C88 16.1791 88.1791 16 88.4 16C88.4 16 91.6 16 91.6 16C91.8209 16 92 16.1791 92 16.4C92 16.4 92 19.6 92 19.6C92 19.8209 92.1791 20 92.4 20C92.4 20 99.6 20 99.6 20C99.8209 20 100 20.1791 100 20.4C100 20.4 100 23.6 100 23.6C100 23.8209 99.8209 24 99.6 24C99.6 24 96.4 24 96.4 24C96.1791 24 96 24.1791 96 24.4C96 24.4 96 27.6 96 27.6C96 27.8209 96.1791 28 96.4 28C96.4 28 99.6 28 99.6 28C99.8209 28 100 28.1791 100 28.4C100 28.4 100 31.6 100 31.6C100 31.8209 99.8209 32 99.6 32C99.6 32 96.4 32 96.4 32C96.1791 32 96 32.1791 96 32.4C96 32.4 96 35.6 96 35.6C96 35.8209 95.8209 36 95.6 36C95.6 36 92.4 36 92.4 36C92.1791 36 92 36.1791 92 36.4C92 36.4 92 44 92 44C92 44 88.4 44 88.4 44C88.1791 44 88 43.8209 88 43.6C88 43.6 88 36.4 88 36.4C88 36.1791 87.8209 36 87.6 36C87.6 36 84.4 36 84.4 36C84.1791 36 84 36.1791 84 36.4C84 36.4 84 47.6 84 47.6C84 47.8209 84.1791 48 84.4 48C84.4 48 87.6 48 87.6 48C87.8209 48 88 48.1791 88 48.4C88 48.4 88 51.6 88 51.6C88 51.8209 87.8209 52 87.6 52C87.6 52 84.4 52 84.4 52C84.1791 52 84 52.1791 84 52.4C84 52.4 84 55.6 84 55.6C84 55.8209 83.8209 56 83.6 56C83.6 56 80.4 56 80.4 56C80.1791 56 80 56.1791 80 56.4C80 56.4 80 59.6 80 59.6C80 59.8209 79.8209 60 79.6 60ZM67.6 60C67.6 60 64.4 60 64.4 60C64.1791 60 64 59.8209 64 59.6C64 59.6 64 56.4 64 56.4C64 56.1791 64.1791 56 64.4 56C64.4 56 68 56 68 56C68 56 68 59.6 68 59.6C68 59.8209 67.8209 60 67.6 60ZM55.6 60C55.6 60 52 60 52 60C52 60 52 56.4 52 56.4C52 56.1791 52.1791 56 52.4 56C52.4 56 56 56 56 56C56 56 56 59.6 56 59.6C56 59.8209 55.8209 60 55.6 60ZM47.6 60C47.6 60 40.4 60 40.4 60C40.1791 60 40 59.8209 40 59.6C40 59.6 40 56.4 40 56.4C40 56.1791 40.1791 56 40.4 56C40.4 56 47.6 56 47.6 56C47.8209 56 48 56.1791 48 56.4C48 56.4 48 60 48 60C48 60 47.6 60 47.6 60ZM23.6 60C23.6 60 20 60 20 60C20 60 20 52.4 20 52.4C20 52.1791 19.8209 52 19.6 52C19.6 52 16.4 52 16.4 52C16.1791 52 16 51.8209 16 51.6C16 51.6 16 48.4 16 48.4C16 48.1791 16.1791 48 16.4 48C16.4 48 23.6 48 23.6 48C23.8209 48 24 48.1791 24 48.4C24 48.4 24 59.6 24 59.6C24 59.8209 23.8209 60 23.6 60ZM115.6 56C115.6 56 108.4 56 108.4 56C108.179 56 108 55.8209 108 55.6C108 55.6 108 52 108 52C108 52 115.6 52 115.6 52C115.821 52 116 52.1791 116 52.4C116 52.4 116 55.6 116 55.6C116 55.8209 115.821 56 115.6 56ZM103.6 56C103.6 56 100.4 56 100.4 56C100.179 56 100 55.8209 100 55.6C100 55.6 100 52 100 52C100 52 104 52 104 52C104 52 104 55.6 104 55.6C104 55.8209 103.821 56 103.6 56ZM95.6 56C95.6 56 92 56 92 56C92 56 92 44 92 44C92 44 95.6 44 95.6 44C95.8209 44 96 43.8209 96 43.6C96 43.6 96 40.4 96 40.4C96 40.1791 96.1791 40 96.4 40C96.4 40 99.6 40 99.6 40C99.8209 40 100 40.1791 100 40.4C100 40.4 100 52 100 52C100 52 96.4 52 96.4 52C96.1791 52 96 52.1791 96 52.4C96 52.4 96 55.6 96 55.6C96 55.8209 95.8209 56 95.6 56ZM59.6 56C59.6 56 56 56 56 56C56 56 56 52 56 52C56 52 59.6 52 59.6 52C59.8209 52 60 52.1791 60 52.4C60 52.4 60 55.6 60 55.6C60 55.8209 59.8209 56 59.6 56ZM131.6 52C131.6 52 128 52 128 52C128 52 128 48.4 128 48.4C128 48.1791 128.179 48 128.4 48C128.4 48 131.6 48 131.6 48C131.821 48 132 48.1791 132 48.4C132 48.4 132 51.6 132 51.6C132 51.8209 131.821 52 131.6 52ZM107.6 52C107.6 52 104 52 104 52C104 52 104 48.4 104 48.4C104 48.1791 104.179 48 104.4 48C104.4 48 107.6 48 107.6 48C107.821 48 108 48.1791 108 48.4C108 48.4 108 52 108 52C108 52 107.6 52 107.6 52ZM67.6 52C67.6 52 64.4 52 64.4 52C64.1791 52 64 51.8209 64 51.6C64 51.6 64 40 64 40C64 40 67.6 40 67.6 40C67.8209 40 68 40.1791 68 40.4C68 40.4 68 43.6 68 43.6C68 43.8209 68.1791 44 68.4 44C68.4 44 72 44 72 44C72 44 72 48 72 48C72 48 68.4 48 68.4 48C68.1791 48 68 48.1791 68 48.4C68 48.4 68 52 68 52C68 52 67.6 52 67.6 52ZM55.6 52C55.6 52 52.4 52 52.4 52C52.1791 52 52 51.8209 52 51.6C52 51.6 52 48.4 52 48.4C52 48.1791 51.8209 48 51.6 48C51.6 48 48.4 48 48.4 48C48.1791 48 48 47.8209 48 47.6C48 47.6 48 40.4 48 40.4C48 40.1791 48.1791 40 48.4 40C48.4 40 52 40 52 40C52 40 52 43.6 52 43.6C52 43.8209 52.1791 44 52.4 44C52.4 44 56 44 56 44C56 44 56 52 56 52C56 52 55.6 52 55.6 52ZM43.6 52C43.6 52 40.4 52 40.4 52C40.1791 52 40 51.8209 40 51.6C40 51.6 40 48.4 40 48.4C40 48.1791 40.1791 48 40.4 48C40.4 48 43.6 48 43.6 48C43.8209 48 44 48.1791 44 48.4C44 48.4 44 51.6 44 51.6C44 51.8209 43.8209 52 43.6 52ZM35.6 52C35.6 52 28.4 52 28.4 52C28.1791 52 28 51.8209 28 51.6C28 51.6 28 48.4 28 48.4C28 48.1791 28.1791 48 28.4 48C28.4 48 35.6 48 35.6 48C35.8209 48 36 48.1791 36 48.4C36 48.4 36 51.6 36 51.6C36 51.8209 35.8209 52 35.6 52ZM131.6 44C131.6 44 104.4 44 104.4 44C104.179 44 104 43.8209 104 43.6C104 43.6 104 16.4 104 16.4C104 16.1791 104.179 16 104.4 16C104.4 16 131.6 16 131.6 16C131.821 16 132 16.1791 132 16.4C132 16.4 132 43.6 132 43.6C132 43.8209 131.821 44 131.6 44ZM75.6 44C75.6 44 72 44 72 44C72 44 72 36.4 72 36.4C72 36.1791 71.8209 36 71.6 36C71.6 36 64.4 36 64.4 36C64.1791 36 64 36.1791 64 36.4C64 36.4 64 40 64 40C64 40 60 40 60 40C60 40 60 36.4 60 36.4C60 36.1791 59.8209 36 59.6 36C59.6 36 56 36 56 36C56 36 56 28 56 28C56 28 59.6 28 59.6 28C59.8209 28 60 27.8209 60 27.6C60 27.6 60 20.4 60 20.4C60 20.1791 59.8209 20 59.6 20C59.6 20 48.4 20 48.4 20C48.1791 20 48 19.8209 48 19.6C48 19.6 48 16.4 48 16.4C48 16.1791 48.1791 16 48.4 16C48.4 16 63.6 16 63.6 16C63.8209 16 64 16.1791 64 16.4C64 16.4 64 19.6 64 19.6C64 19.8209 64.1791 20 64.4 20C64.4 20 67.6 20 67.6 20C67.8209 20 68 19.8209 68 19.6C68 19.6 68 16.4 68 16.4C68 16.1791 68.1791 16 68.4 16C68.4 16 71.6 16 71.6 16C71.8209 16 72 16.1791 72 16.4C72 16.4 72 31.6 72 31.6C72 31.8209 72.1791 32 72.4 32C72.4 32 76 32 76 32C76 32 76 44 76 44C76 44 75.6 44 75.6 44ZM59.6 44C59.6 44 56 44 56 44C56 44 56 40 56 40C56 40 60 40 60 40C60 40 60 43.6 60 43.6C60 43.8209 59.8209 44 59.6 44ZM43.6 44C43.6 44 16.4 44 16.4 44C16.1791 44 16 43.8209 16 43.6C16 43.6 16 16.4 16 16.4C16 16.1791 16.1791 16 16.4 16C16.4 16 43.6 16 43.6 16C43.8209 16 44 16.1791 44 16.4C44 16.4 44 43.6 44 43.6C44 43.8209 43.8209 44 43.6 44ZM128 39.6C128 39.6 128 20.4 128 20.4C128 20.1791 127.821 20 127.6 20C127.6 20 108.4 20 108.4 20C108.179 20 108 20.1791 108 20.4C108 20.4 108 39.6 108 39.6C108 39.8209 108.179 40 108.4 40C108.4 40 127.6 40 127.6 40C127.821 40 128 39.8209 128 39.6ZM55.6 40C55.6 40 52 40 52 40C52 40 52 36.4 52 36.4C52 36.1791 52.1791 36 52.4 36C52.4 36 56 36 56 36C56 36 56 40 56 40C56 40 55.6 40 55.6 40ZM40 39.6C40 39.6 40 20.4 40 20.4C40 20.1791 39.8209 20 39.6 20C39.6 20 20.4 20 20.4 20C20.1791 20 20 20.1791 20 20.4C20 20.4 20 39.6 20 39.6C20 39.8209 20.1791 40 20.4 40C20.4 40 39.6 40 39.6 40C39.8209 40 40 39.8209 40 39.6ZM123.6 36C123.6 36 112.4 36 112.4 36C112.179 36 112 35.8209 112 35.6C112 35.6 112 24.4 112 24.4C112 24.1791 112.179 24 112.4 24C112.4 24 123.6 24 123.6 24C123.821 24 124 24.1791 124 24.4C124 24.4 124 35.6 124 35.6C124 35.8209 123.821 36 123.6 36ZM35.6 36C35.6 36 24.4 36 24.4 36C24.1791 36 24 35.8209 24 35.6C24 35.6 24 24.4 24 24.4C24 24.1791 24.1791 24 24.4 24C24.4 24 35.6 24 35.6 24C35.8209 24 36 24.1791 36 24.4C36 24.4 36 35.6 36 35.6C36 35.8209 35.8209 36 35.6 36ZM68 31.6C68 31.6 68 24.4 68 24.4C68 24.1791 67.8209 24 67.6 24C67.6 24 64.4 24 64.4 24C64.1791 24 64 24.1791 64 24.4C64 24.4 64 31.6 64 31.6C64 31.8209 64.1791 32 64.4 32C64.4 32 67.6 32 67.6 32C67.8209 32 68 31.8209 68 31.6ZM55.6 28C55.6 28 52.4 28 52.4 28C52.1791 28 52 27.8209 52 27.6C52 27.6 52 24.4 52 24.4C52 24.1791 52.1791 24 52.4 24C52.4 24 55.6 24 55.6 24C55.8209 24 56 24.1791 56 24.4C56 24.4 56 28 56 28C56 28 55.6 28 55.6 28Z" stroke-linejoin="miter" id="path1" fill="#2a0162" stroke="none" stroke-linecap="butt"/><animate dur="3.33333s" calcMode="spline" keySplines="0 0 1 1;0 0 1 1;0 0 1 1" keyTimes="0;0.6;0.75;1" fill="freeze" attributeName="opacity" values="0;0;1;1"/></g></g></g></g></g></g></g><defs><linearGradient id="0x000000002e0a39e0"><stop stop-color="#fab524" offset="0"/><stop stop-color="#d02ba7" offset="0.5"/><stop stop-color="#9d33a7" offset="1"/></linearGradient><radialGradient cx="0" id="0x000000002f612f20" r="352.657" gradientUnits="userSpaceOnUse" cy="0" xlink:href="#0x000000002e0a39e0"/></defs></svg>
